<svg width="56" height="27" viewBox="0 0 56 27" fill="none" xmlns="http://www.w3.org/2000/svg">
<path d="M4.85277 24.9464V26.7415H6.61998V24.9464H4.85277ZM1.76721 24.9464H0V26.7415H1.76721V24.9464ZM1.76721 1.79509V0H0V1.79509H1.76721ZM4.85277 1.79509H6.61998V0H4.85277V1.79509ZM4.85277 23.1513H1.76721V26.7415H4.85277V23.1513ZM3.53443 24.9464V1.79509H0V24.9464H3.53443ZM1.76721 3.59019H4.85277V0H1.76721V3.59019ZM3.08556 1.79509V24.9464H6.61998V1.79509H3.08556ZM12.4439 24.1225L11.166 25.3625L11.1755 25.3724L12.4439 24.1225ZM11.426 10.9878H13.1932V9.19267H11.426V10.9878ZM9.05614 10.8424L7.86739 12.1706L7.90144 12.2021L7.93707 12.2317L9.05614 10.8424ZM8.88119 9.21063L8.6594 7.42973L7.11397 7.62832V9.21063H8.88119ZM11.5214 8.87135L11.7432 10.6522L13.0965 10.4784L13.2736 9.1045L11.5214 8.87135ZM12.1735 3.81457L10.4218 3.57732L10.4213 3.58143L12.1735 3.81457ZM12.3803 3.42683L13.4993 4.81616L13.535 4.78655L13.569 4.7551L12.3803 3.42683ZM14.257 3.26528H16.0243V1.47018H14.257V3.26528ZM14.257 8.90366H12.4898V10.6988H14.257V8.90366ZM18.8694 8.90366H20.6366V7.10857H18.8694V8.90366ZM18.8694 10.9878V12.7829H20.6366V10.9878H18.8694ZM14.257 10.9878V9.19267H12.4898V10.9878H14.257ZM16.7859 22.7331L17.3697 24.4275L17.3925 24.4192L17.4151 24.4106L16.7859 22.7331ZM17.7561 22.1999L18.7696 23.6705L18.7827 23.6613L18.7956 23.6516L17.7561 22.1999ZM18.4559 22.3453L19.9635 21.4085L19.9518 21.3893L19.9396 21.37L18.4559 22.3453ZM19.283 23.7186L20.4898 25.0299L21.5425 24.0304L20.7906 22.7817L19.283 23.7186ZM17.5176 24.8172L18.1297 26.5013L18.1519 26.4925L17.5176 24.8172ZM15.3863 23.4098C14.4484 23.4098 13.9805 23.1533 13.7123 22.8725L11.1755 25.3724C12.2857 26.5349 13.7794 27 15.3863 27V23.4098ZM13.7218 22.8826C13.4561 22.6 13.1932 22.0689 13.1932 21.0044H9.65876C9.65876 22.6541 10.0744 24.2018 11.166 25.3625L13.7218 22.8826ZM13.1932 21.0044V10.9878H9.65876V21.0044H13.1932ZM11.426 9.19267H9.48557V12.7829H11.426V9.19267ZM9.48557 9.19267C9.56736 9.19267 9.68032 9.20459 9.80982 9.24845C9.94196 9.29318 10.0669 9.36303 10.1752 9.45303L7.93707 12.2317C8.40911 12.624 8.96235 12.7829 9.48557 12.7829V9.19267ZM10.2449 9.5141C10.6115 9.85262 10.6484 10.25 10.6484 10.3577H7.11397C7.11397 10.8962 7.26752 11.6167 7.86739 12.1706L10.2449 9.5141ZM10.6484 10.3577V9.21063H7.11397V10.3577H10.6484ZM9.10299 10.9915L11.7432 10.6522L11.2996 7.09046L8.6594 7.42973L9.10299 10.9915ZM13.2736 9.1045L13.9257 4.04772L10.4213 3.58143L9.76916 8.63821L13.2736 9.1045ZM13.9252 4.05181C13.9105 4.16395 13.8735 4.30429 13.795 4.45144C13.7156 4.60043 13.6113 4.72314 13.4993 4.81616L11.2612 2.03751C10.7735 2.44286 10.4981 2.99617 10.4218 3.57732L13.9252 4.05181ZM13.569 4.7551C13.4547 4.86067 13.319 4.9434 13.1735 4.99618C13.0317 5.04762 12.9094 5.06037 12.8256 5.06037V1.47018C12.2733 1.47018 11.6802 1.6473 11.1915 2.09857L13.569 4.7551ZM12.8256 5.06037H14.257V1.47018H12.8256V5.06037ZM12.4898 3.26528V8.90366H16.0243V3.26528H12.4898ZM14.257 10.6988H18.8694V7.10857H14.257V10.6988ZM17.1023 8.90366V10.9878H20.6366V8.90366H17.1023ZM18.8694 9.19267H14.257V12.7829H18.8694V9.19267ZM12.4898 10.9878V20.8105H16.0243V10.9878H12.4898ZM12.4898 20.8105C12.4898 21.7573 12.7141 22.8158 13.5005 23.6146L15.9997 21.076C16.0579 21.1351 16.0684 21.1792 16.0603 21.1543C16.0495 21.1207 16.0243 21.0164 16.0243 20.8105H12.4898ZM13.5005 23.6146C14.201 24.3262 15.0946 24.6412 16.0225 24.6412V21.0511C15.9858 21.0511 15.9637 21.0482 15.9539 21.0464C15.946 21.0433 15.9445 21.0448 15.9539 21.0464C15.9622 21.0496 15.9721 21.0557 15.9828 21.0627C15.9933 21.0697 15.999 21.0753 15.9997 21.076L13.5005 23.6146ZM16.0225 24.6412C16.4581 24.6412 16.9206 24.587 17.3697 24.4275L16.2021 21.0387C16.2169 21.0335 16.212 21.0371 16.181 21.0415C16.1499 21.0462 16.0983 21.0511 16.0225 21.0511V24.6412ZM17.4151 24.4106C17.709 24.2968 17.9985 24.1618 18.2677 23.9977L16.4493 20.9191C16.4004 20.9489 16.3082 20.997 16.1568 21.0555L17.4151 24.4106ZM18.2677 23.9977C18.4485 23.8875 18.6187 23.7778 18.7696 23.6705L16.7427 20.7294C16.6816 20.7728 16.5866 20.8355 16.4493 20.9191L18.2677 23.9977ZM18.7956 23.6516C18.7766 23.6656 18.7121 23.7116 18.6049 23.7573C18.4981 23.8031 18.3087 23.8658 18.0583 23.8658V20.2756C17.4188 20.2756 16.9452 20.5793 16.7167 20.7482L18.7956 23.6516ZM18.0583 23.8658C17.7496 23.8658 17.4776 23.7634 17.2753 23.6238C17.0923 23.4974 17.001 23.3657 16.9722 23.3206L19.9396 21.37C19.6544 20.9224 19.047 20.2756 18.0583 20.2756V23.8658ZM16.9485 23.2822L17.7755 24.6554L20.7906 22.7817L19.9635 21.4085L16.9485 23.2822ZM18.0761 22.4073C17.7712 22.6968 17.3828 22.9465 16.8832 23.1418L18.1519 26.4925C19.0308 26.1493 19.8193 25.6666 20.4898 25.0299L18.0761 22.4073ZM16.9054 23.1332C16.4114 23.3184 15.9081 23.4098 15.3863 23.4098V27C16.3277 27 17.2453 26.8331 18.1297 26.5013L16.9054 23.1332ZM32.0721 8.91982L31.3937 10.5774L31.4 10.5801L32.0721 8.91982ZM34.4897 10.6162L33.1837 11.8257L33.1932 11.8362L34.4897 10.6162ZM36.0165 13.2819L34.3433 13.8601L34.3506 13.8812L36.0165 13.2819ZM36.0165 20.2451L34.3506 19.6457L34.3453 19.6615L36.0165 20.2451ZM34.4897 22.8946L33.1932 21.6747L33.1837 21.6851L34.4897 22.8946ZM32.0721 24.591L32.7348 26.255L32.744 26.2513L32.0721 24.591ZM25.6942 24.591L25.0158 26.2488L25.0379 26.2577L25.6942 24.591ZM21.7339 13.2819L23.3997 13.8812L23.4016 13.8757L21.7339 13.2819ZM25.6942 8.91982L25.0222 7.25954L25.0158 7.26227L25.6942 8.91982ZM32.4538 21.3113L33.8743 22.3791L33.8793 22.3722L32.4538 21.3113ZM25.2966 12.2156L23.9 11.1154L23.8862 11.1339L25.2966 12.2156ZM24.4059 14.1705L22.697 13.7124L22.6928 13.7293L24.4059 14.1705ZM24.4059 19.3726L22.6928 19.8139L22.6988 19.8367L24.4059 19.3726ZM25.2966 21.3113L23.8862 22.3931L23.8984 22.4094L23.9109 22.4256L25.2966 21.3113ZM28.8911 10.1171C29.8702 10.1171 30.6951 10.2824 31.3937 10.5774L32.7505 7.26227C31.5617 6.76025 30.2658 6.52696 28.8911 6.52696V10.1171ZM31.4 10.5801C32.1271 10.8837 32.7124 11.3005 33.1837 11.8257L35.7954 9.40674C34.9521 8.46713 33.9256 7.75299 32.744 7.25956L31.4 10.5801ZM33.1932 11.8362C33.6758 12.3652 34.0648 13.0285 34.3433 13.8601L37.6895 12.7037C37.2682 11.4459 36.6395 10.3319 35.7859 9.3962L33.1932 11.8362ZM34.3506 13.8812C34.6339 14.6933 34.7901 15.6442 34.7901 16.7554H38.3245C38.3245 15.3032 38.1202 13.9384 37.6823 12.6826L34.3506 13.8812ZM34.7901 16.7554C34.7901 17.8793 34.6333 18.8349 34.3506 19.6457L37.6823 20.8443C38.1207 19.587 38.3245 18.2165 38.3245 16.7554H34.7901ZM34.3453 19.6615C34.0676 20.4818 33.6787 21.1424 33.1932 21.6747L35.7859 24.1146C36.6365 23.182 37.2654 22.0762 37.6878 20.8286L34.3453 19.6615ZM33.1837 21.6851C32.7124 22.2103 32.1271 22.6272 31.4 22.9307L32.744 26.2513C33.9256 25.7578 34.9521 25.0437 35.7954 24.1042L33.1837 21.6851ZM31.4094 22.9269C30.7064 23.2158 29.876 23.3775 28.8911 23.3775V26.9677C30.2602 26.9677 31.5502 26.7417 32.7348 26.255L31.4094 22.9269ZM28.8911 23.3775C27.9066 23.3775 27.0681 23.2158 26.3506 22.9242L25.0379 26.2577C26.229 26.7417 27.5215 26.9677 28.8911 26.9677V23.3775ZM26.3727 22.9334C25.6539 22.6298 25.0614 22.2102 24.5729 21.6747L21.9802 24.1146C22.8278 25.0439 23.8471 25.7553 25.0158 26.2488L26.3727 22.9334ZM24.5729 21.6747C24.0839 21.1385 23.6879 20.4723 23.3997 19.6459L20.0679 20.8443C20.5009 22.0858 21.1334 23.186 21.9802 24.1146L24.5729 21.6747ZM23.3997 19.6459C23.1171 18.8351 22.9603 17.8793 22.9603 16.7554H19.4259C19.4259 18.2165 19.6297 19.587 20.0679 20.8443L23.3997 19.6459ZM22.9603 16.7554C22.9603 15.6442 23.1166 14.6933 23.3997 13.8812L20.0679 12.6826C19.6302 13.9384 19.4259 15.3032 19.4259 16.7554H22.9603ZM23.4016 13.8757C23.6907 13.0379 24.0868 12.3692 24.5729 11.8362L21.9802 9.3962C21.1304 10.328 20.4981 11.4364 20.0662 12.6881L23.4016 13.8757ZM24.5729 11.8362C25.0614 11.3006 25.6539 10.8809 26.3727 10.5774L25.0158 7.26227C23.8471 7.75577 22.8278 8.46695 21.9802 9.3962L24.5729 11.8362ZM26.3661 10.5801C27.0794 10.2822 27.9124 10.1171 28.8911 10.1171V6.52696C27.5159 6.52696 26.2177 6.76036 25.0222 7.25954L26.3661 10.5801ZM28.8911 24.722C30.9121 24.722 32.6862 24.0101 33.8743 22.3791L31.0332 20.2436C30.6521 20.7667 30.0509 21.1318 28.8911 21.1318V24.722ZM33.8793 22.3722C34.9641 20.8683 35.398 18.9309 35.398 16.7716H31.8636C31.8636 18.4896 31.5126 19.5787 31.0282 20.2505L33.8793 22.3722ZM35.398 16.7716C35.398 14.604 34.9652 12.6601 33.8793 11.1547L31.0282 13.2765C31.5117 13.9467 31.8636 15.0402 31.8636 16.7716H35.398ZM33.8793 11.1547C32.6938 9.51105 30.9188 8.78878 28.8911 8.78878V12.379C30.0444 12.379 30.6445 12.7445 31.0282 13.2765L33.8793 11.1547ZM28.8911 8.78878C27.8861 8.78878 26.9217 8.96339 26.0475 9.37576L27.5358 12.6321C27.849 12.4844 28.2843 12.379 28.8911 12.379V8.78878ZM26.0475 9.37576C25.1968 9.77698 24.4748 10.3623 23.9 11.1154L26.6931 13.3157C26.9239 13.0133 27.199 12.7909 27.5358 12.6321L26.0475 9.37576ZM23.8862 11.1339C23.3293 11.8829 22.945 12.7581 22.697 13.7124L26.1146 14.6285C26.2696 14.0319 26.479 13.6038 26.7068 13.2973L23.8862 11.1339ZM22.6928 13.7293C22.459 14.6666 22.3524 15.6859 22.3524 16.7716H25.8869C25.8869 15.9185 25.9711 15.2037 26.1189 14.6116L22.6928 13.7293ZM22.3524 16.7716C22.3524 17.8572 22.459 18.8766 22.6928 19.8139L26.1189 18.9315C25.9711 18.3394 25.8869 17.6246 25.8869 16.7716H22.3524ZM22.6988 19.8367C22.9478 20.7818 23.3325 21.6483 23.8862 22.3931L26.7068 20.2296C26.4759 19.9189 26.267 19.493 26.1131 18.9086L22.6988 19.8367ZM23.9109 22.4256C24.4867 23.1644 25.2054 23.738 26.0475 24.135L27.5358 20.8787C27.1902 20.7157 26.9122 20.4922 26.6821 20.1971L23.9109 22.4256ZM26.0475 24.135C26.9217 24.5474 27.8861 24.722 28.8911 24.722V21.1318C28.2843 21.1318 27.849 21.0265 27.5358 20.8787L26.0475 24.135ZM49.7476 8.91982L49.0692 10.5774L49.0757 10.5801L49.7476 8.91982ZM52.1651 10.6162L50.8592 11.8257L50.8689 11.8362L52.1651 10.6162ZM53.692 13.2819L52.0188 13.8601L52.0262 13.8812L53.692 13.2819ZM53.692 20.2451L52.0262 19.6457L52.0208 19.6615L53.692 20.2451ZM52.1651 22.8946L50.8687 21.6747L50.8593 21.6851L52.1651 22.8946ZM49.7476 24.591L50.4103 26.255L50.4197 26.2513L49.7476 24.591ZM43.3697 24.591L42.6913 26.2488L42.7134 26.2577L43.3697 24.591ZM39.4094 13.2819L41.0753 13.8812L41.0771 13.8757L39.4094 13.2819ZM43.3697 8.91982L42.6978 7.25954L42.6913 7.26227L43.3697 8.91982ZM50.1293 21.3113L51.55 22.3791L51.5549 22.3722L50.1293 21.3113ZM42.9721 12.2156L41.5755 11.1154L41.5619 11.1339L42.9721 12.2156ZM42.0814 14.1705L40.3727 13.7124L40.3685 13.7293L42.0814 14.1705ZM42.0814 19.3726L40.3683 19.8139L40.3743 19.8367L42.0814 19.3726ZM42.9721 21.3113L41.5619 22.3931L41.5741 22.4094L41.5866 22.4256L42.9721 21.3113ZM46.5666 10.1171C47.5458 10.1171 48.3706 10.2824 49.0692 10.5774L50.426 7.26227C49.2372 6.76025 47.9415 6.52696 46.5666 6.52696V10.1171ZM49.0757 10.5801C49.8027 10.8837 50.3877 11.3005 50.8592 11.8257L53.4711 9.40674C52.6276 8.46713 51.6012 7.75299 50.4197 7.25956L49.0757 10.5801ZM50.8689 11.8362C51.3513 12.3652 51.7403 13.0285 52.0188 13.8601L55.365 12.7037C54.9437 11.4459 54.315 10.3319 53.4616 9.3962L50.8689 11.8362ZM52.0262 13.8812C52.3093 14.6933 52.4656 15.6442 52.4656 16.7554H56C56 15.3032 55.7957 13.9384 55.358 12.6826L52.0262 13.8812ZM52.4656 16.7554C52.4656 17.8793 52.3088 18.8349 52.0262 19.6457L55.358 20.8443C55.7962 19.587 56 18.2165 56 16.7554H52.4656ZM52.0208 19.6615C51.7433 20.4818 51.3542 21.1424 50.8687 21.6747L53.4616 24.1146C54.3121 23.182 54.9411 22.0762 55.3633 20.8286L52.0208 19.6615ZM50.8593 21.6851C50.3879 22.2103 49.8027 22.6272 49.0757 22.9307L50.4197 26.2513C51.6012 25.7578 52.6276 25.0437 53.4711 24.1042L50.8593 21.6851ZM49.0849 22.9269C48.3821 23.2158 47.5515 23.3775 46.5666 23.3775V26.9677C47.9357 26.9677 49.2259 26.7417 50.4103 26.255L49.0849 22.9269ZM46.5666 23.3775C45.5823 23.3775 44.7436 23.2158 44.0261 22.9242L42.7134 26.2577C43.9045 26.7417 45.1972 26.9677 46.5666 26.9677V23.3775ZM44.0482 22.9334C43.3294 22.6298 42.7371 22.2102 42.2486 21.6747L39.6559 24.1146C40.5035 25.0439 41.5226 25.7553 42.6913 26.2488L44.0482 22.9334ZM42.2486 21.6747C41.7594 21.1385 41.3634 20.4723 41.0753 19.6459L37.7436 20.8443C38.1764 22.0858 38.8089 23.186 39.6559 24.1146L42.2486 21.6747ZM41.0753 19.6459C40.7926 18.8351 40.6358 17.8793 40.6358 16.7554H37.1014C37.1014 18.2165 37.3052 19.587 37.7436 20.8443L41.0753 19.6459ZM40.6358 16.7554C40.6358 15.6442 40.7921 14.6933 41.0753 13.8812L37.7436 12.6826C37.3057 13.9384 37.1014 15.3032 37.1014 16.7554H40.6358ZM41.0771 13.8757C41.3662 13.0379 41.7624 12.3692 42.2486 11.8362L39.6559 9.3962C38.8061 10.328 38.1736 11.4364 37.7417 12.6881L41.0771 13.8757ZM42.2486 11.8362C42.7371 11.3006 43.3294 10.8809 44.0482 10.5774L42.6913 7.26227C41.5226 7.75577 40.5035 8.46695 39.6559 9.3962L42.2486 11.8362ZM44.0418 10.5801C44.7549 10.2822 45.5879 10.1171 46.5666 10.1171V6.52696C45.1914 6.52696 43.8932 6.76036 42.6978 7.25954L44.0418 10.5801ZM46.5666 24.722C48.5878 24.722 50.3617 24.0101 51.55 22.3791L48.7088 20.2436C48.3276 20.7667 47.7266 21.1318 46.5666 21.1318V24.722ZM51.5549 22.3722C52.6398 20.8683 53.0735 18.9309 53.0735 16.7716H49.5391C49.5391 18.4896 49.1883 19.5787 48.7039 20.2505L51.5549 22.3722ZM53.0735 16.7716C53.0735 14.604 52.6407 12.6601 51.5549 11.1547L48.7039 13.2765C49.1872 13.9467 49.5391 15.0402 49.5391 16.7716H53.0735ZM51.5549 11.1547C50.3693 9.51105 48.5943 8.78878 46.5666 8.78878V12.379C47.7199 12.379 48.32 12.7445 48.7039 13.2765L51.5549 11.1547ZM46.5666 8.78878C45.5618 8.78878 44.5974 8.96339 43.723 9.37576L45.2113 12.6321C45.5247 12.4844 45.9599 12.379 46.5666 12.379V8.78878ZM43.723 9.37576C42.8723 9.77698 42.1505 10.3623 41.5755 11.1154L44.3685 13.3157C44.5995 13.0133 44.8745 12.7909 45.2113 12.6321L43.723 9.37576ZM41.5619 11.1339C41.005 11.8829 40.6206 12.7581 40.3727 13.7124L43.7901 14.6285C43.9451 14.0319 44.1547 13.6038 44.3825 13.2973L41.5619 11.1339ZM40.3685 13.7293C40.1345 14.6666 40.0279 15.6859 40.0279 16.7716H43.5623C43.5623 15.9185 43.6466 15.2037 43.7946 14.6116L40.3685 13.7293ZM40.0279 16.7716C40.0279 17.8572 40.1343 18.8766 40.3683 19.8139L43.7946 18.9315C43.6466 18.3394 43.5623 17.6246 43.5623 16.7716H40.0279ZM40.3743 19.8367C40.6233 20.7818 41.0082 21.6483 41.5619 22.3931L44.3825 20.2296C44.1515 19.9189 43.9427 19.493 43.7886 18.9086L40.3743 19.8367ZM41.5866 22.4256C42.1624 23.1644 42.8811 23.738 43.723 24.135L45.2113 20.8787C44.8658 20.7157 44.5879 20.4922 44.3578 20.1971L41.5866 22.4256ZM43.723 24.135C44.5974 24.5474 45.5618 24.722 46.5666 24.722V21.1318C45.9599 21.1318 45.5247 21.0265 45.2113 20.8787L43.723 24.135Z" fill="#2E8EFF"/>
<path d="M31.5198 11.13C31.0419 11.5283 30.6465 12.1111 30.339 12.6492C30.2425 12.8181 29.9662 12.9338 29.9662 13.1187" stroke="#2E8EFF" stroke-width="2" stroke-linecap="round"/>
<path d="M27.6667 12.4973C28.2183 12.5157 28.7539 12.6547 29.3032 12.6803C29.4576 12.6874 29.7667 12.6219 29.9109 12.6837C30.03 12.7347 29.6609 12.7517 29.5346 12.7804C29.1322 12.8716 28.7252 12.9265 28.3193 12.9979C27.8245 13.0849 27.3961 13.2213 26.9348 13.4018C26.4538 13.59 27.558 13.4546 27.5908 13.4536C29.3498 13.4003 31.0049 13.0863 32.673 12.5249C32.7044 12.5143 33.7333 12.0826 33.657 12.0657C33.5362 12.0388 33.4189 12.1284 33.3221 12.1865" stroke="#2E8EFF" stroke-width="2" stroke-linecap="round"/>
<path d="M24.1243 16.5368C25.7983 15.8742 27.3396 14.9726 28.9787 14.2339C30.0204 13.7645 31.1156 13.4596 32.1654 13.0186C32.3674 12.9338 32.5152 12.8481 32.6385 12.6837" stroke="#2E8EFF" stroke-width="2" stroke-linecap="round"/>
<path d="M25.9266 15.0454C26.5408 14.1408 27.1943 13.2354 27.9015 12.4007C28.2762 11.9584 27.7273 12.5347 27.6253 12.67C27.278 13.1305 26.7967 13.4787 26.4583 13.9544C26.2924 14.1875 26.1049 14.3835 25.9128 14.5931C25.9011 14.6059 26.1266 14.2509 26.1752 14.1753" stroke="#2E8EFF" stroke-width="2" stroke-linecap="round"/>
<path d="M43.017 23.6216C43.5069 22.5574 43.7392 21.4019 44.0804 20.2864C45.0185 17.2192 46.7504 14.576 48.1821 11.7309C48.9977 10.1101 49.6601 8.41019 50.4884 6.7971C50.5012 6.77216 50.5989 6.57612 50.5989 6.65554" stroke="#2E8EFF" stroke-width="2" stroke-linecap="round"/>
<path d="M3.22226 10.9188C3.28211 11.2256 3.3314 11.5296 3.37546 11.838" stroke="#2E8EFF" stroke-width="2" stroke-linecap="round"/>
<path d="M29.4517 15.4311L26.7271 16.6695C26.2843 16.8708 26 17.3123 26 17.7987C26 17.932 26.0215 18.0645 26.0637 18.191L26.2942 18.8827C26.4295 19.2886 26.6575 19.6575 26.9601 19.9601C27.3134 20.3134 27.756 20.564 28.2407 20.6852L28.4071 20.7268C29.1032 20.9008 29.8403 20.7731 30.4373 20.3751L30.5075 20.3283C30.8302 20.1132 31.0912 19.8175 31.2647 19.4706C31.4194 19.1611 31.5 18.8199 31.5 18.4739V16.75C31.5 15.6963 30.4109 14.995 29.4517 15.4311Z" stroke="#A7D0FF"/>
<path d="M17 21.3333V21.3333C17.7587 20.6379 18.9614 20.7964 19.5139 21.6647L21 24" stroke="#6BABF8"/>
</svg>
